PathFileType  4	(X/Y/Z) C:\Users\antoi\Documents\MyRepositories\mobilecap\ResultsAnalysis
DataRate	CameraRate	NumFrames	NumMarkers	Units	OrigDataRate	OrigDataStartFrame	OrigNumFrames
100.0	100.0	4	51	mm	100.0	120	136
Frame#	Time	r_knee			r_shank_antsup			r_ankle			r_calc			r_5meta			r_toe			L_knee			L_shank_antsup			L_ankle			L_calc			L_5meta			L_toe			r_sh2			r_sh3			r_sh4			L_sh2			L_sh3			r_thigh1			r_thigh2			r_thigh3			r_thigh4			r_thigh5			L_thigh1			L_thigh2			L_thigh3			L_thigh4			r.ASIS			r.PSIS			L.ASIS			L.PSIS			C7			R_Shoulder			L_Shoulder			R_Sternum			L_Sternum			R_humerus			R_elbow_med			R_elbow_lat			R_forearm			R_wrist_radius			R_wrist_ulna			L_humerus			L_elbow_med			L_elbow_lat			L_forearm			L_wrist_radius			L_wrist_ulna			R_HJC			L_HJC			R_HJC_reg			L_HJC_reg			
		X1	Y1	Z1	X2	Y2	Z2	X3	Y3	Z3	X4	Y4	Z4	X5	Y5	Z5	X6	Y6	Z6	X7	Y7	Z7	X8	Y8	Z8	X9	Y9	Z9	X10	Y10	Z10	X11	Y11	Z11	X12	Y12	Z12	X13	Y13	Z13	X14	Y14	Z14	X15	Y15	Z15	X16	Y16	Z16	X17	Y17	Z17	X18	Y18	Z18	X19	Y19	Z19	X20	Y20	Z20	X21	Y21	Z21	X22	Y22	Z22	X23	Y23	Z23	X24	Y24	Z24	X25	Y25	Z25	X26	Y26	Z26	X27	Y27	Z27	X28	Y28	Z28	X29	Y29	Z29	X30	Y30	Z30	X31	Y31	Z31	X32	Y32	Z32	X33	Y33	Z33	X34	Y34	Z34	X35	Y35	Z35	X36	Y36	Z36	X37	Y37	Z37	X38	Y38	Z38	X39	Y39	Z39	X40	Y40	Z40	X41	Y41	Z41	X42	Y42	Z42	X43	Y43	Z43	X44	Y44	Z44	X45	Y45	Z45	X46	Y46	Z46	X47	Y47	Z47	X48	Y48	Z48	X49	Y49	Z49	X50	Y50	Z50	X51	Y51	Z51	

120	1.19000000	1505.19204	542.87267	-154.70624	1563.61062	428.13292	-168.92440	1533.87891	88.78884	-196.21299	1479.10894	58.19584	-254.77438	1668.62625	35.84099	-138.88488	1710.93096	69.17469	-202.60749	1175.27861	530.87251	-469.50837	1158.34904	415.87014	-453.34045	902.53426	161.01666	-430.53806	833.26448	168.24657	-380.65448	996.46424	30.54204	-441.80190	1031.25278	47.75513	-374.08548	1587.81513	319.03945	-193.59222	1502.57997	403.72736	-126.75144	1532.66025	291.30558	-136.54221	1084.90161	457.28062	-487.74830	1040.00635	344.40282	-497.84839	1514.08268	791.08862	-156.86957	1549.11670	685.43967	-175.68722	1530.77328	646.05739	-123.85309	1432.73397	748.27909	-90.12434	1476.85455	642.90141	-113.93337	1328.78646	750.30025	-496.02296	1300.46141	617.55087	-483.13923	1219.53040	770.72394	-517.43418	1190.43679	635.96755	-493.08930	1405.31469	1020.03954	-166.13434	1198.98798	1041.21062	-249.22425	1405.73995	1006.00973	-434.95726	1199.43318	1044.45145	-345.24081	1262.34662	1540.85547	-286.56782	1323.07635	1460.20139	-100.25195	1352.30522	1499.92755	-460.04316	1403.19940	1463.16901	-255.36254	1403.77642	1463.08136	-302.90928	1318.38726	1288.85480	-31.91933	1236.52025	1073.22685	-81.94975	1243.14662	1097.31637	-2.88381	1325.36145	946.36619	28.31811	1347.74732	826.38276	46.80026	1311.52715	821.88943	69.57695	1393.41589	1339.91751	-540.55374	1360.86242	1112.11186	-528.02758	1404.41464	1142.86532	-589.43524	1546.40045	1084.10262	-515.94160	1643.68911	1015.33530	-506.24535	1633.50210	992.93924	-548.49971	1326.57757	935.43275	-198.06281	1326.96618	916.51032	-410.62441	1337.29176	923.83835	-207.71028	1338.10258	929.84525	-385.24404	
121	1.20000000	1518.24928	543.17996	-152.98484	1575.37289	426.86470	-168.36931	1536.19268	88.95491	-196.47334	1480.38417	59.39019	-254.91917	1668.93998	35.06340	-138.46634	1712.46404	66.09322	-202.82311	1196.89548	528.82051	-470.71854	1176.49308	414.55223	-455.93923	913.14269	168.07122	-432.11468	844.75291	180.13307	-381.39856	998.34186	31.18090	-441.81525	1033.80027	47.41659	-374.25416	1596.43380	317.26126	-193.69594	1514.50085	403.98387	-125.50547	1541.45147	290.78603	-135.87743	1104.28774	459.14477	-488.33975	1055.19945	347.95502	-499.38995	1528.56463	791.44757	-152.15695	1562.76356	685.54384	-171.68865	1543.57768	645.83222	-120.45153	1445.65487	748.43046	-87.35551	1489.75472	643.31473	-111.16831	1347.18975	750.18929	-495.46283	1321.01758	616.75704	-483.85961	1237.55474	769.09951	-516.22823	1210.76320	633.71634	-493.18725	1420.25214	1021.71762	-164.73525	1214.01554	1042.26435	-248.19662	1420.99492	1006.12505	-433.04133	1214.67137	1044.99611	-344.52877	1276.10903	1541.42948	-284.17824	1336.68143	1460.71869	-97.94296	1366.26222	1501.49033	-457.59732	1417.31351	1464.49944	-252.89216	1417.73483	1464.32386	-300.46973	1332.42378	1289.17316	-30.17420	1251.87498	1073.29356	-81.44909	1258.15242	1097.08130	-2.27010	1341.30177	946.46089	28.32826	1364.27978	826.51550	46.24785	1328.09162	821.80001	69.04646	1405.75606	1340.74230	-538.40366	1369.52562	1113.47030	-526.54597	1413.37605	1143.56153	-587.93656	1554.64536	1082.50254	-514.77374	1651.00625	1012.51473	-505.52554	1640.46267	990.45903	-547.87694	1341.51656	936.89161	-196.20115	1342.36994	916.70964	-408.64424	1352.28553	925.31041	-205.84883	1353.47738	930.34276	-383.13594	
122	1.21000000	1530.73473	543.37657	-151.32403	1585.98173	425.41840	-167.53172	1537.88759	89.13221	-196.88821	1481.19431	60.23884	-255.07961	1669.03538	34.87543	-138.14218	1713.53141	63.87551	-203.09874	1220.02567	526.47884	-472.28472	1196.33262	413.09419	-458.65554	925.58485	175.83309	-433.87668	858.33427	193.13380	-382.46229	1000.67555	32.72609	-441.93378	1036.82958	47.62432	-374.47060	1604.02940	315.40742	-193.51319	1525.00064	404.01583	-124.40265	1548.88023	290.12323	-135.30648	1125.59180	460.69777	-489.42156	1072.35429	351.37441	-501.23259	1542.78005	791.93213	-148.10308	1576.28167	685.85882	-168.22353	1556.34445	645.86093	-117.56036	1458.67243	748.85581	-84.85785	1502.62279	643.88472	-108.73353	1366.11669	750.20040	-495.01973	1342.72075	616.04774	-484.98862	1256.10146	767.14765	-515.15443	1232.16730	631.07251	-493.80821	1435.06525	1023.56678	-163.20145	1228.88715	1043.44285	-247.05889	1435.89684	1006.43844	-430.91844	1229.72095	1045.82920	-343.67883	1289.76639	1542.16112	-281.83708	1350.32619	1461.54429	-95.69387	1380.01876	1503.29011	-455.19216	1431.29576	1465.99878	-250.51824	1431.58149	1465.76177	-298.11505	1346.45503	1289.82003	-28.39009	1267.23169	1073.72355	-80.91384	1273.21598	1097.16656	-1.64463	1357.40476	946.92091	28.29676	1381.12848	827.03494	45.60784	1344.97500	822.02905	68.42132	1417.86400	1341.89544	-536.43675	1377.90806	1115.21915	-524.85344	1422.01906	1144.53704	-586.35300	1562.57700	1080.91744	-513.78794	1658.02852	1009.56551	-505.16613	1646.93456	987.84001	-547.64886	1356.25288	938.52721	-194.21994	1357.51496	917.12578	-406.53685	1367.16465	926.76200	-203.97002	1368.67883	931.12855	-380.95938	
123	1.22000000	1542.48385	543.43482	-149.74735	1595.40694	423.84172	-166.40265	1539.11440	89.30180	-197.35251	1481.66648	60.84413	-255.20022	1669.01516	34.96803	-137.88976	1714.28095	62.34138	-203.32961	1244.52783	523.84466	-474.17541	1217.92709	411.41648	-461.24605	939.83365	184.35803	-435.79815	874.06020	207.15805	-383.92417	1003.56416	35.50923	-442.18814	1040.46364	48.71077	-374.81980	1610.69568	313.54254	-192.96146	1533.99472	403.81881	-123.44866	1554.99563	289.36946	-134.77674	1148.85850	461.76128	-491.03984	1091.53780	354.47296	-503.25302	1556.67133	792.38044	-144.88178	1589.50893	686.15770	-165.41268	1568.92561	645.98795	-115.21254	1471.72013	749.51241	-82.69017	1515.27344	644.51124	-106.65377	1385.44556	750.28305	-494.68988	1365.44063	615.42538	-486.44772	1275.08538	764.81420	-514.27557	1254.54936	628.02737	-494.95143	1449.71876	1025.54913	-161.52229	1243.61198	1044.68284	-245.81637	1450.38346	1006.86045	-428.60189	1244.50361	1046.84407	-342.68751	1303.32091	1543.01680	-279.55147	1364.04364	1462.58041	-93.52694	1393.57796	1505.21394	-452.86858	1445.12824	1467.55754	-248.28029	1445.31142	1467.30590	-295.88444	1360.52500	1290.70022	-26.59500	1282.56333	1074.42419	-80.31646	1288.35389	1097.49221	-0.96837	1373.65518	947.65584	28.24794	1398.28160	827.86425	44.91475	1362.15611	822.49307	67.73023	1429.69695	1343.27205	-534.72297	1386.09989	1117.22602	-522.94330	1430.38003	1145.68689	-584.70194	1570.26389	1079.33101	-513.02111	1664.80271	1006.49127	-505.18719	1653.01440	985.08487	-547.82491	1370.76753	940.29038	-192.09994	1372.35847	917.65881	-404.28178	1381.96114	928.16774	-201.96807	1383.58136	932.09969	-378.62830	
